<svg width="131" height="28" viewBox="0 0 131 28" fill="none" xmlns="http://www.w3.org/2000/svg">
<path d="M11.996 27.36C9.704 27.36 7.73 26.838 6.074 25.794C4.43 24.75 3.164 23.238 2.276 21.258C1.388 19.266 0.944 16.866 0.944 14.058C0.944 11.226 1.4 8.808 2.312 6.804C3.224 4.8 4.514 3.27 6.182 2.214C7.862 1.146 9.848 0.611999 12.14 0.611999C13.448 0.611999 14.678 0.839998 15.83 1.296C16.982 1.752 18.002 2.376 18.89 3.168C19.778 3.96 20.486 4.86 21.014 5.868C21.554 6.864 21.86 7.908 21.932 9H18.368C18.2 8.04 17.828 7.146 17.252 6.318C16.676 5.49 15.944 4.824 15.056 4.32C14.18 3.816 13.19 3.564 12.086 3.564C9.842 3.564 8.024 4.404 6.632 6.084C5.24 7.764 4.544 10.398 4.544 13.986C4.544 16.458 4.874 18.456 5.534 19.98C6.206 21.504 7.118 22.614 8.27 23.31C9.422 24.006 10.724 24.354 12.176 24.354C13.628 24.354 14.834 24.03 15.794 23.382C16.754 22.734 17.48 21.942 17.972 21.006C18.476 20.07 18.746 19.17 18.782 18.306L18.89 16.002H12.554V13.554L22.346 13.572V27H19.844V23.04C19.388 23.784 18.806 24.486 18.098 25.146C17.402 25.806 16.55 26.34 15.542 26.748C14.546 27.156 13.364 27.36 11.996 27.36ZM38.6503 27.36C36.3343 27.36 34.3303 26.844 32.6383 25.812C30.9463 24.768 29.6383 23.256 28.7143 21.276C27.8023 19.284 27.3463 16.872 27.3463 14.04C27.3463 11.196 27.8083 8.778 28.7323 6.786C29.6563 4.782 30.9643 3.252 32.6563 2.196C34.3483 1.14 36.3463 0.611999 38.6503 0.611999C40.9543 0.611999 42.9463 1.14 44.6263 2.196C46.3063 3.24 47.6023 4.764 48.5143 6.768C49.4263 8.772 49.8823 11.196 49.8823 14.04C49.8823 16.86 49.4263 19.266 48.5143 21.258C47.6143 23.238 46.3243 24.75 44.6443 25.794C42.9643 26.838 40.9663 27.36 38.6503 27.36ZM38.6503 24.462C41.0623 24.462 42.9283 23.628 44.2483 21.96C45.5683 20.292 46.2283 17.664 46.2283 14.076C46.2283 10.44 45.5623 7.77 44.2303 6.066C42.8983 4.362 41.0383 3.51 38.6503 3.51C36.2743 3.51 34.4083 4.368 33.0523 6.084C31.6963 7.8 31.0183 10.464 31.0183 14.076C31.0183 17.664 31.6963 20.292 33.0523 21.96C34.4083 23.628 36.2743 24.462 38.6503 24.462ZM74.6011 0.971998L65.3671 27H61.3531L52.2811 0.971998H55.5751L63.3691 23.202L71.3251 0.971998H74.6011Z" fill="black"/>
<path d="M77.4097 27V22.752H81.3697V27H77.4097Z" fill="#D9D376"/>
<path d="M86.9888 27V0.971998H95.7908C97.6508 0.971998 99.3068 1.284 100.759 1.908C102.211 2.532 103.351 3.456 104.179 4.68C105.019 5.904 105.439 7.41 105.439 9.198C105.439 10.926 105.049 12.402 104.269 13.626C103.501 14.838 102.427 15.768 101.047 16.416C99.6668 17.052 98.0648 17.37 96.2408 17.37H90.4088V27H86.9888ZM90.3908 14.562H96.1688C97.9448 14.562 99.3908 14.064 100.507 13.068C101.635 12.072 102.199 10.716 102.199 9C102.199 7.272 101.623 5.964 100.471 5.076C99.3188 4.188 97.8308 3.744 96.0068 3.744H90.3908V14.562Z" fill="#FF7777"/>
<path d="M127.281 14.994H113.241V27H109.911V0.971998H113.241V12.06H127.281V0.971998H130.611V27H127.281V14.994Z" fill="#52BAF9"/>
</svg>
